<svg width="202" height="50" viewBox="0 0 202 50" fill="none" xmlns="http://www.w3.org/2000/svg">
<g clip-path="url(#clip0_2_11)">
<path d="M49.1901 37.581H48.2721V10.7451C48.2721 8.86944 46.7461 7.34341 44.8704 7.34341H5.12959C3.25389 7.34341 1.72786 8.86944 1.72786 10.7451V37.581H0.809935C0.362635 37.581 0 37.9436 0 38.3909V40.1188C0 41.5181 1.13844 42.6566 2.5378 42.6566H47.4622C48.8616 42.6566 50 41.5181 50 40.1188V38.3909C50 37.9436 49.6374 37.581 49.1901 37.581ZM3.34773 10.7451C3.34773 9.76263 4.14708 8.96328 5.12959 8.96328H44.8704C45.8529 8.96328 46.6523 9.76263 46.6523 10.7451V37.581H3.34773V10.7451ZM48.3801 40.1188C48.3801 40.6249 47.9684 41.0367 47.4622 41.0367H2.5378C2.03164 41.0367 1.61987 40.6249 1.61987 40.1188V39.2009H19.8731C19.8719 39.2188 19.8704 39.2366 19.8704 39.2549C19.8704 39.7022 20.233 40.0648 20.6803 40.0648H29.3197C29.767 40.0648 30.1296 39.7022 30.1296 39.2549C30.1296 39.2366 30.1281 39.2188 30.1269 39.2009H48.3801V40.1188Z" fill="#9D68FB"/>
<path d="M44.0065 10.7991H5.99353C5.54623 10.7991 5.18359 11.1618 5.18359 11.6091V34.9352C5.18359 35.3825 5.54623 35.7451 5.99353 35.7451H44.0065C44.4538 35.7451 44.8164 35.3825 44.8164 34.9352V11.6091C44.8164 11.1618 44.4538 10.7991 44.0065 10.7991ZM43.1965 34.1253H6.80346V12.419H43.1965V34.1253Z" fill="#9D68FB"/>
</g>
<path d="M69.232 29V17.32H71.232V22.008H74.368V17.32H76.368V29H74.368V23.864H71.232V29H69.232Z" fill="#9D68FB"/>
<path d="M79.0017 29V17.32H86.0097V19.064H80.9697V22.104H85.4497V23.832H80.9697V27.256H86.0097V29H79.0017Z" fill="#9D68FB"/>
<path d="M87.7475 29L90.6915 17.32H93.2675L96.2275 29H94.1795L93.5395 26.168H90.4355L89.7955 29H87.7475ZM90.8035 24.536H93.1715L92.4675 21.4C92.3502 20.8773 92.2488 20.408 92.1635 19.992C92.0782 19.5653 92.0195 19.256 91.9875 19.064C91.9555 19.256 91.8968 19.5653 91.8115 19.992C91.7368 20.408 91.6355 20.872 91.5075 21.384L90.8035 24.536Z" fill="#9D68FB"/>
<path d="M97.9812 29V17.32H101.453C102.243 17.32 102.925 17.4693 103.501 17.768C104.088 18.0667 104.541 18.488 104.861 19.032C105.181 19.576 105.341 20.2213 105.341 20.968V25.336C105.341 26.072 105.181 26.7173 104.861 27.272C104.541 27.816 104.088 28.2427 103.501 28.552C102.925 28.8507 102.243 29 101.453 29H97.9812ZM99.9812 27.16H101.453C102.029 27.16 102.488 27 102.829 26.68C103.171 26.3493 103.341 25.9013 103.341 25.336V20.968C103.341 20.4133 103.171 19.976 102.829 19.656C102.488 19.3253 102.029 19.16 101.453 19.16H99.9812V27.16Z" fill="#9D68FB"/>
<path d="M107.831 29L106.631 17.32H108.359L109.063 25.48C109.084 25.6613 109.1 25.8853 109.111 26.152C109.132 26.408 109.148 26.6693 109.159 26.936C109.18 27.2027 109.191 27.4373 109.191 27.64C109.212 27.4373 109.234 27.2027 109.255 26.936C109.276 26.6693 109.298 26.408 109.319 26.152C109.351 25.8853 109.378 25.6613 109.399 25.48L110.359 17.32H112.039L112.935 25.48C112.967 25.6613 112.994 25.8853 113.015 26.152C113.047 26.408 113.079 26.6693 113.111 26.936C113.143 27.2027 113.17 27.4373 113.191 27.64C113.202 27.4373 113.212 27.2027 113.223 26.936C113.234 26.6693 113.244 26.408 113.255 26.152C113.276 25.8853 113.298 25.6613 113.319 25.48L114.007 17.32H115.719L114.455 29H112.247L111.383 20.808C111.362 20.6053 111.335 20.3707 111.303 20.104C111.282 19.8267 111.26 19.5547 111.239 19.288C111.218 19.0107 111.202 18.776 111.191 18.584C111.18 18.776 111.159 19.0107 111.127 19.288C111.106 19.5547 111.084 19.8267 111.063 20.104C111.042 20.3707 111.02 20.6053 110.999 20.808L110.055 29H107.831Z" fill="#9D68FB"/>
<path d="M116.529 29L119.473 17.32H122.049L125.009 29H122.961L122.321 26.168H119.217L118.577 29H116.529ZM119.585 24.536H121.953L121.249 21.4C121.131 20.8773 121.03 20.408 120.945 19.992C120.859 19.5653 120.801 19.256 120.769 19.064C120.737 19.256 120.678 19.5653 120.593 19.992C120.518 20.408 120.417 20.872 120.289 21.384L119.585 24.536Z" fill="#9D68FB"/>
<path d="M129.354 29V24.76L125.93 17.32H128.026L129.85 21.368C129.989 21.688 130.106 22.0027 130.202 22.312C130.298 22.6213 130.362 22.8613 130.394 23.032C130.437 22.8613 130.501 22.6213 130.586 22.312C130.682 22.0027 130.8 21.688 130.938 21.368L132.714 17.32H134.794L131.37 24.76V29H129.354Z" fill="#9D68FB"/>
<path d="M149.55 29.16C148.803 29.16 148.153 29.0213 147.598 28.744C147.054 28.456 146.633 28.056 146.334 27.544C146.046 27.0213 145.902 26.408 145.902 25.704V20.616C145.902 19.912 146.046 19.304 146.334 18.792C146.633 18.2693 147.054 17.8693 147.598 17.592C148.153 17.304 148.803 17.16 149.55 17.16C150.307 17.16 150.958 17.304 151.502 17.592C152.046 17.8693 152.462 18.2693 152.75 18.792C153.049 19.304 153.198 19.9067 153.198 20.6V25.704C153.198 26.408 153.049 27.0213 152.75 27.544C152.462 28.056 152.046 28.456 151.502 28.744C150.958 29.0213 150.307 29.16 149.55 29.16ZM149.55 27.4C150.094 27.4 150.505 27.256 150.782 26.968C151.059 26.6693 151.198 26.248 151.198 25.704V20.616C151.198 20.0613 151.059 19.64 150.782 19.352C150.505 19.064 150.094 18.92 149.55 18.92C149.006 18.92 148.595 19.064 148.318 19.352C148.041 19.64 147.902 20.0613 147.902 20.616V25.704C147.902 26.248 148.041 26.6693 148.318 26.968C148.606 27.256 149.017 27.4 149.55 27.4Z" fill="#9D68FB"/>
<path d="M155.496 29V17.32H157.944L161.192 26.76C161.16 26.4187 161.122 26.0187 161.08 25.56C161.048 25.0907 161.021 24.616 161 24.136C160.978 23.6453 160.968 23.2187 160.968 22.856V17.32H162.792V29H160.344L157.128 19.56C157.149 19.8693 157.176 20.2427 157.208 20.68C157.24 21.1173 157.266 21.5653 157.288 22.024C157.309 22.4827 157.32 22.904 157.32 23.288V29H155.496Z" fill="#9D68FB"/>
<path d="M165.585 29V17.32H167.585V27.144H172.545V29H165.585Z" fill="#9D68FB"/>
<path d="M174.971 29V27.24H177.323V19.08H174.971V17.32H181.691V19.08H179.339V27.24H181.691V29H174.971Z" fill="#9D68FB"/>
<path d="M184.277 29V17.32H186.725L189.973 26.76C189.941 26.4187 189.904 26.0187 189.861 25.56C189.829 25.0907 189.802 24.616 189.781 24.136C189.76 23.6453 189.749 23.2187 189.749 22.856V17.32H191.573V29H189.125L185.909 19.56C185.93 19.8693 185.957 20.2427 185.989 20.68C186.021 21.1173 186.048 21.5653 186.069 22.024C186.09 22.4827 186.101 22.904 186.101 23.288V29H184.277Z" fill="#9D68FB"/>
<path d="M194.127 29V17.32H201.135V19.064H196.095V22.104H200.575V23.832H196.095V27.256H201.135V29H194.127Z" fill="#9D68FB"/>
<rect x="69" y="39" width="132" height="2" rx="1" fill="#9D68FB"/>
<defs>
<clipPath id="clip0_2_11">
<rect width="50" height="50" fill="white"/>
</clipPath>
</defs>
</svg>
