<svg width="115" height="178" viewBox="0 0 115 178" fill="none" xmlns="http://www.w3.org/2000/svg">
<path d="M4.96 178V148.96L59.68 93.9999C67.36 86.1599 73.04 79.1199 76.72 72.8799C80.4 66.4799 82.24 59.9199 82.24 53.1999C82.24 45.0399 80 38.7199 75.52 34.2399C71.04 29.5999 64.96 27.2799 57.28 27.2799C48.8 27.2799 42.16 29.7599 37.36 34.7199C32.56 39.5199 30.16 46.2399 30.16 54.8799H0.160004C0.320003 43.6799 2.72 34.0799 7.36 26.0799C12.16 17.9199 18.88 11.5999 27.52 7.1199C36.16 2.6399 46.24 0.399902 57.76 0.399902C68.8 0.399902 78.4 2.4799 86.56 6.63989C94.72 10.7999 101.04 16.6399 105.52 24.1599C110 31.6799 112.24 40.6399 112.24 51.0399C112.24 61.7599 109.44 72.2399 103.84 82.4799C98.4 92.5599 89.6 103.44 77.44 115.12L40.96 150.88H114.4V178H4.96Z" fill="#9D68FB" fill-opacity="0.09"/>
</svg>
