<svg width="113" height="179" viewBox="0 0 113 179" fill="none" xmlns="http://www.w3.org/2000/svg">
<path d="M56.32 178.4C44.96 178.4 35.04 176.32 26.56 172.16C18.24 168 11.76 162.16 7.12003 154.64C2.48003 147.12 0.160034 138.24 0.160034 128H30.4C30.4 135.84 32.64 142 37.12 146.48C41.76 150.8 48.24 152.96 56.56 152.96C64.88 152.96 71.28 150.72 75.76 146.24C80.24 141.76 82.48 135.68 82.48 128V114.32C82.48 106.48 80.24 100.4 75.76 96.0801C71.28 91.6001 64.88 89.36 56.56 89.36H36.88V62.24L75.52 26.48H8.08004V0.800049H106V27.92L56.56 73.28V63.68C73.84 63.68 87.52 68.24 97.6 77.36C107.68 86.48 112.72 98.8001 112.72 114.32V128C112.72 138.24 110.4 147.12 105.76 154.64C101.12 162.16 94.56 168 86.08 172.16C77.6 176.32 67.68 178.4 56.32 178.4Z" fill="#9D68FB" fill-opacity="0.09"/>
</svg>
